<?xml version="1.0" standalone="no"?>
<!DOCTYPE svg PUBLIC "-//W3C//DTD SVG 20010904//EN"
 "http://www.w3.org/TR/2001/REC-SVG-20010904/DTD/svg10.dtd">
<svg version="1.0" xmlns="http://www.w3.org/2000/svg"
 width="960.000000pt" height="960.000000pt" viewBox="0 0 960.000000 960.000000"
 preserveAspectRatio="xMidYMid meet">
<metadata>
Created by potrace 1.15, written by Peter Selinger 2001-2017
</metadata>
<g transform="translate(0.000000,960.000000) scale(0.100000,-0.100000)"
fill="#000000" stroke="none">
<path d="M3035 9560 c-33 -21 -91 -58 -130 -83 -38 -24 -110 -70 -160 -102
-130 -84 -304 -195 -346 -220 -38 -23 -111 -72 -265 -177 -88 -61 -273 -178
-279 -178 -2 0 -117 -74 -255 -165 l-250 -164 0 344 0 345 31 0 c26 0 30 3 26
19 -7 28 20 63 46 59 21 -3 22 -7 10 -49 -6 -21 23 -32 48 -19 10 6 22 22 25
36 6 24 7 24 31 8 19 -12 28 -13 36 -5 9 9 6 13 -11 17 -12 4 -22 13 -22 20 0
19 19 18 42 -3 14 -13 21 -14 30 -5 7 7 19 12 27 12 19 0 110 43 111 53 0 4
-335 7 -745 7 -490 0 -745 -3 -745 -10 0 -5 6 -10 13 -10 7 0 30 -9 52 -20 22
-11 47 -20 57 -20 9 0 20 -5 23 -11 5 -7 15 -4 32 6 19 13 28 14 36 6 9 -9 6
-13 -11 -17 -12 -4 -22 -13 -22 -20 0 -18 10 -18 38 2 21 14 23 14 31 -8 14
-38 36 -51 60 -38 17 9 19 15 11 30 -16 29 -12 40 15 40 26 0 45 -25 45 -59 0
-17 6 -21 30 -21 l30 0 0 -355 c0 -350 0 -355 -20 -355 -21 0 -40 -34 -40 -70
0 -18 10 -18 214 -14 118 3 230 2 250 -2 l37 -6 -23 -16 c-13 -9 -27 -21 -31
-26 -6 -8 -10 -7 -14 2 -6 14 -33 16 -33 2 0 -5 5 -10 10 -10 6 0 10 -4 10
-10 0 -5 -9 -10 -20 -10 -11 0 -20 -6 -20 -14 0 -8 -7 -16 -15 -20 -11 -4 -16
5 -21 34 -6 37 -9 40 -38 40 -28 -1 -29 -2 -13 -14 23 -18 23 -77 -1 -97 -15
-13 -20 -13 -30 -3 -7 7 -12 20 -12 28 0 29 -13 46 -35 46 -13 0 -27 -4 -30
-10 -3 -5 1 -10 9 -10 19 0 22 -40 4 -58 -9 -9 -4 -12 26 -12 33 0 37 -2 26
-15 -7 -8 -18 -15 -24 -15 -6 0 -22 -9 -36 -20 -14 -11 -36 -20 -50 -20 -34 0
-70 -26 -70 -51 0 -31 -25 -22 -35 14 -9 29 -13 32 -47 31 -34 -1 -38 2 -38
22 0 20 -5 24 -30 24 -16 0 -30 -4 -30 -10 0 -5 5 -10 10 -10 14 0 12 -84 -2
-98 -9 -9 -3 -12 30 -12 39 0 57 13 31 22 -19 6 0 50 19 46 19 -4 30 -48 13
-48 -20 0 -11 -19 11 -22 15 -2 -25 -32 -148 -107 -93 -58 -249 -157 -346
-220 l-178 -116 0 -282 c0 -156 4 -283 8 -283 5 0 33 17 63 38 47 33 192 127
265 172 13 8 89 58 168 110 80 52 196 129 259 170 63 41 175 116 249 166 73
50 191 130 262 178 71 48 147 101 169 117 35 26 48 29 112 29 48 0 76 4 84 13
16 20 -6 37 -48 37 l-36 0 33 20 c18 11 37 20 42 20 5 0 21 12 37 26 15 15
107 78 203 140 96 62 186 122 200 132 14 10 54 36 90 57 36 22 147 95 248 162
100 68 185 123 189 123 3 0 58 35 122 78 138 91 138 91 216 137 33 20 71 44
85 54 40 29 402 266 430 281 14 7 92 57 174 112 82 54 152 98 156 98 4 0 23
13 43 29 20 15 50 34 67 41 16 7 30 16 30 21 0 5 -182 9 -412 8 l-413 0 -60
-39z m-1813 -492 c3 -51 4 -210 3 -353 l-1 -260 -187 -3 -187 -2 0 355 0 355
184 0 183 0 5 -92z"/>
<path d="M6530 9287 c-28 -17 -50 -22 -105 -22 -91 0 -98 -19 -23 -59 29 -16
65 -35 81 -43 15 -8 27 -19 27 -24 0 -5 12 -9 26 -9 14 0 23 -4 19 -10 -3 -6
5 -10 19 -10 13 0 31 -6 38 -14 8 -7 24 -17 36 -20 12 -4 22 -12 22 -17 0 -5
7 -9 15 -9 8 0 15 -4 15 -10 0 -5 5 -10 11 -10 6 0 68 -28 137 -62 110 -53
166 -84 247 -136 11 -6 27 -15 35 -19 8 -4 17 -9 20 -13 3 -3 30 -19 60 -34
30 -15 61 -35 68 -44 7 -10 15 -15 18 -13 3 2 51 -25 107 -60 55 -34 117 -71
136 -81 20 -10 50 -27 66 -37 157 -97 199 -119 248 -125 54 -7 176 -46 225
-72 15 -7 31 -14 35 -14 5 0 15 -7 23 -15 13 -13 8 -14 -44 -14 -42 1 -70 -5
-98 -20 -51 -27 -130 -61 -143 -61 -6 0 -11 -4 -11 -10 0 -5 -6 -10 -14 -10
-7 0 -24 -10 -38 -22 -14 -13 -48 -39 -76 -60 -47 -34 -53 -35 -85 -24 -33 11
-137 84 -137 96 0 14 126 143 148 151 31 12 27 34 -10 57 -18 11 -76 50 -128
87 -189 133 -445 294 -588 371 -31 16 -102 54 -157 83 -107 57 -392 201 -399
201 -2 0 -30 15 -63 33 -32 18 -83 39 -114 46 -52 13 -58 12 -125 -14 -38 -15
-90 -41 -116 -57 l-48 -30 -44 26 c-54 32 -66 32 -87 3 -16 -22 -16 -24 17
-46 40 -28 40 -30 13 -60 -13 -14 -27 -20 -39 -16 -11 3 -41 -5 -70 -20 -28
-14 -63 -24 -77 -23 -36 4 -42 -23 -11 -52 13 -12 59 -40 103 -61 44 -21 125
-64 180 -94 55 -31 114 -62 131 -70 17 -8 36 -21 44 -29 7 -9 18 -16 26 -16 7
0 19 -6 26 -12 7 -7 29 -21 48 -30 52 -26 178 -108 333 -216 76 -54 146 -102
155 -107 30 -18 77 -49 82 -55 3 -3 39 -31 80 -62 42 -31 92 -73 112 -93 30
-32 45 -39 87 -43 30 -3 56 0 64 7 8 6 42 14 76 17 61 7 100 1 240 -34 59 -15
62 -17 38 -25 -15 -5 -27 -13 -27 -18 0 -15 19 -10 41 10 22 20 51 18 70 -5 9
-11 6 -14 -15 -14 -37 0 -38 0 -65 -21 -13 -11 -29 -19 -36 -19 -6 0 -20 -9
-30 -20 -9 -10 -20 -18 -24 -17 -4 1 -18 -10 -32 -24 -13 -14 -35 -33 -48 -41
-13 -9 -93 -81 -178 -160 -109 -102 -152 -148 -149 -160 2 -10 0 -18 -5 -18
-5 0 -9 7 -9 15 0 8 -4 15 -9 15 -18 0 -191 173 -191 191 0 31 69 129 106 151
63 37 55 50 -141 213 -327 272 -572 430 -960 620 -225 109 -281 135 -298 135
-7 0 -45 -28 -83 -62 -38 -35 -88 -71 -111 -82 l-41 -18 -117 61 c-64 33 -122
61 -127 61 -7 0 -9 -24 -5 -66 4 -57 9 -70 38 -100 37 -38 36 -40 -15 -19 -53
22 -49 -6 5 -30 35 -16 42 -17 50 -4 5 8 9 10 9 4 0 -19 -16 -35 -63 -59 -57
-31 -224 -152 -229 -167 -3 -8 -31 -8 -98 1 -207 28 -538 12 -750 -36 -345
-78 -587 -178 -905 -372 -111 -68 -260 -179 -385 -288 -280 -243 -508 -538
-674 -870 -110 -220 -188 -462 -238 -734 -30 -166 -32 -511 -4 -660 33 -178
125 -472 157 -504 14 -15 11 -36 -5 -36 -7 0 -22 -12 -32 -27 -28 -44 -102
-191 -135 -270 -17 -40 -41 -88 -53 -106 -13 -18 -26 -45 -29 -59 -7 -28 -25
-28 -77 -1 -62 32 -85 5 -38 -45 18 -21 43 -48 55 -62 l22 -26 -19 -64 c-11
-36 -20 -79 -20 -97 0 -27 -8 -37 -45 -63 -25 -17 -45 -35 -45 -41 0 -35 298
-372 474 -537 77 -72 204 -180 284 -241 87 -65 293 -201 397 -261 192 -110
187 -109 241 -43 51 63 182 193 193 193 5 0 59 -24 120 -54 103 -49 111 -55
96 -70 -9 -9 -22 -16 -28 -16 -14 -1 -50 -56 -112 -174 -26 -49 -86 -148 -134
-220 -110 -164 -151 -229 -181 -286 -30 -58 -62 -99 -77 -99 -6 -1 -37 22 -67
50 -56 51 -56 51 -56 110 0 59 27 178 55 246 8 20 15 45 15 57 0 26 -39 66
-95 95 -147 78 -442 285 -586 411 -231 203 -473 447 -548 553 -31 42 -39 47
-72 47 -37 0 -37 -1 -55 -57 -9 -32 -21 -62 -26 -67 -4 -6 -8 -16 -8 -23 0 -7
-21 -45 -46 -83 -40 -60 -49 -68 -62 -58 -33 28 -102 131 -108 164 -9 47 -22
43 -22 -8 -1 -29 8 -57 24 -85 20 -35 22 -43 9 -43 -8 0 -15 -7 -15 -16 0 -15
2 -15 25 0 24 16 26 16 37 -9 15 -33 6 -41 -31 -25 -26 10 -33 9 -55 -7 -14
-10 -26 -22 -26 -28 0 -5 24 -32 54 -60 l54 -50 -33 -83 c-19 -45 -38 -106
-44 -135 -5 -28 -14 -65 -20 -80 -6 -16 -8 -34 -4 -40 32 -56 383 -427 493
-522 202 -175 378 -301 600 -433 80 -47 147 -89 150 -92 3 -4 20 -15 39 -26
l33 -19 16 24 c9 13 41 49 72 80 30 31 75 77 98 103 23 27 46 48 51 48 5 0 31
-19 57 -43 27 -24 57 -46 67 -50 21 -8 22 -26 1 -42 -18 -13 -48 -68 -157
-291 -42 -85 -82 -154 -92 -158 -34 -13 -127 85 -156 164 -18 51 -26 59 -92
99 -81 49 -327 219 -342 236 -5 6 -55 45 -110 86 -90 66 -153 115 -238 184
-15 12 -51 45 -79 71 -29 27 -61 54 -72 59 -12 6 -25 20 -31 33 -5 12 -16 22
-23 22 -12 0 -52 36 -264 238 -61 59 -81 73 -97 67 -12 -3 -21 -11 -21 -16 0
-35 -96 46 -124 106 -24 50 -40 45 -34 -10 4 -27 2 -45 -5 -45 -14 0 -3 -157
15 -200 8 -19 32 -55 52 -78 39 -47 40 -50 28 -70 -6 -8 -19 -10 -40 -6 -25 5
-32 12 -32 30 0 22 -4 24 -44 24 -42 0 -45 -2 -52 -32 -4 -18 -9 -28 -11 -22
-2 6 3 31 11 55 8 24 13 45 11 48 -3 2 -5 0 -5 -6 0 -6 -9 -9 -21 -6 -15 4
-22 0 -26 -16 -6 -25 -11 -26 -35 -4 -22 20 -27 15 -33 -26 -3 -24 0 -31 13
-31 12 0 13 -3 5 -8 -11 -7 -19 -31 -22 -64 -1 -5 -5 -8 -11 -8 -5 0 -7 7 -4
15 4 9 0 15 -9 15 -8 0 -17 6 -20 13 -2 6 -10 -8 -17 -33 l-13 -45 -14 33 c-7
18 -20 35 -28 39 -10 3 -14 15 -13 32 2 20 -2 27 -18 29 -12 2 -28 -4 -37 -12
-23 -23 -35 -19 -39 12 -2 21 -8 27 -28 27 -17 0 -25 6 -25 17 0 10 -3 17 -7
15 -4 -1 -15 8 -24 21 -10 14 -24 22 -37 21 -29 -4 -67 10 -67 23 0 6 -2 9 -5
7 -2 -3 2 -24 9 -48 12 -44 13 -44 28 -22 l16 22 21 -27 c15 -20 18 -30 10
-40 -7 -9 -7 -18 2 -32 16 -25 5 -52 -20 -52 -25 0 -32 -21 -21 -61 6 -20 6
-38 0 -50 -14 -26 -12 -45 6 -64 9 -9 26 -45 39 -81 13 -36 33 -76 45 -89 24
-25 30 -35 68 -104 12 -22 29 -41 38 -41 8 0 21 -15 29 -32 7 -18 22 -38 32
-44 28 -17 84 -112 70 -118 -9 -3 -9 -5 1 -5 7 -1 12 -15 12 -36 0 -24 5 -35
15 -35 8 0 15 5 15 10 0 6 6 10 13 10 14 0 44 -53 49 -85 2 -11 22 -35 46 -54
28 -22 42 -42 42 -57 0 -13 9 -32 21 -43 14 -12 19 -26 15 -38 -8 -24 26 -58
49 -49 10 3 13 2 10 -5 -4 -5 9 -25 29 -43 20 -18 36 -40 36 -49 0 -8 9 -19
20 -22 23 -7 25 -16 9 -32 -7 -7 -7 -13 -1 -17 6 -3 13 3 17 14 3 11 13 20 21
20 11 0 12 -4 4 -19 -20 -39 -9 -76 16 -51 5 5 15 6 23 0 13 -7 13 -14 1 -50
-17 -51 -4 -70 35 -52 34 16 35 16 35 -10 1 -32 23 -58 49 -58 13 0 26 -10 33
-25 6 -14 22 -32 35 -40 20 -13 22 -19 12 -36 -8 -15 -8 -24 0 -32 8 -8 11 -8
11 1 0 7 9 12 20 12 11 0 20 -4 20 -10 0 -5 7 -7 15 -4 12 5 15 -2 15 -28 0
-33 2 -34 30 -30 29 4 30 3 20 -22 -16 -44 -13 -49 25 -43 28 5 37 2 45 -14 6
-11 14 -18 18 -15 14 8 39 -20 47 -52 5 -24 15 -36 38 -46 46 -19 73 -52 58
-69 -13 -16 -8 -21 51 -51 21 -11 38 -23 38 -28 0 -4 11 -8 25 -8 14 0 25 -6
25 -13 0 -21 37 -50 51 -41 8 5 11 1 7 -12 -3 -10 -7 -25 -9 -33 -2 -7 2 -16
9 -18 7 -3 12 4 12 16 0 14 6 21 19 21 21 0 43 -22 40 -42 -4 -30 2 -38 31
-38 23 0 30 -4 30 -20 0 -16 7 -20 30 -20 17 0 30 -4 30 -8 0 -5 11 -14 24
-21 14 -8 26 -26 30 -43 4 -22 15 -33 43 -44 80 -33 128 -58 140 -75 8 -10 21
-15 31 -12 11 2 40 -9 67 -26 l49 -31 508 0 c388 0 508 3 508 12 0 9 3 9 12 0
7 -7 41 -12 81 -12 64 0 68 1 62 20 -5 16 -2 20 18 20 14 0 30 7 37 15 10 13
10 19 -4 33 -9 10 -16 26 -16 35 0 9 -3 17 -7 17 -5 0 -17 7 -27 15 -16 12
-17 17 -6 30 10 12 10 19 2 27 -8 8 -12 9 -12 1 0 -15 -55 -73 -69 -73 -6 0
-11 5 -11 12 0 6 -7 3 -15 -8 -14 -17 -14 -16 -9 23 7 43 6 43 -25 43 -30 0
-71 -29 -71 -50 0 -12 -10 -13 -29 -1 -10 6 -12 21 -8 52 3 24 3 52 -1 62 -6
15 -10 12 -20 -17 -8 -20 -18 -36 -23 -36 -5 0 -19 -9 -31 -20 -12 -11 -24
-17 -27 -14 -3 3 5 14 18 25 16 13 21 25 16 36 -6 17 -8 16 -23 -2 -9 -12 -25
-24 -34 -28 -15 -5 -16 -3 -6 18 6 14 15 25 20 25 4 0 8 7 8 15 0 20 -16 19
-24 -1 -7 -19 -19 -12 -21 14 -3 24 -25 144 -31 163 -4 14 -11 15 -40 9 -46
-11 -60 4 -68 74 -5 33 -13 56 -22 60 -8 3 -14 12 -14 20 0 9 -7 12 -19 9 -17
-4 -20 2 -25 54 -3 32 -6 69 -6 82 0 16 -4 21 -15 17 -9 -3 -15 0 -15 8 0 8
-4 16 -10 18 -5 1 -11 38 -13 80 -4 80 -16 108 -49 108 -10 0 -21 6 -23 12 -4
12 -15 180 -15 233 -1 79 1 103 12 129 11 26 9 31 -10 44 -27 18 -28 28 -2 35
25 6 27 42 3 56 -16 8 -16 13 6 58 16 35 21 61 18 91 -2 24 0 45 4 48 5 3 9
14 9 24 0 11 11 27 25 36 19 12 25 25 25 51 0 40 11 63 45 97 14 14 25 35 25
47 0 31 48 113 139 238 43 58 90 129 106 156 16 28 34 55 40 61 6 6 31 42 55
80 25 37 55 79 66 91 12 13 28 37 37 54 8 17 34 52 59 78 24 25 59 72 78 103
41 69 169 207 196 211 21 3 84 58 84 73 0 11 57 48 88 58 12 4 22 13 22 20 0
19 80 92 126 115 23 11 55 34 72 51 17 16 37 30 45 30 29 0 77 22 77 36 0 18
32 34 68 34 16 0 35 6 41 14 7 8 20 12 31 9 12 -3 24 4 35 20 19 30 130 91
151 83 8 -3 14 -1 14 4 0 4 14 11 30 15 17 4 36 12 43 19 6 7 48 29 92 50 44
21 92 44 107 52 14 8 32 14 40 14 8 0 32 13 54 29 21 15 55 31 75 35 20 3 44
15 53 25 9 10 43 31 74 45 66 31 80 39 143 83 26 18 50 33 55 33 4 0 40 23 80
50 40 28 82 50 94 50 13 0 36 15 54 35 17 19 48 41 68 49 20 9 59 37 86 63 27
27 63 61 80 77 17 15 38 43 46 61 19 39 32 45 95 45 35 0 59 8 92 29 61 38
159 151 182 209 22 55 27 156 9 174 -20 20 -14 42 23 84 19 21 35 44 35 50 0
6 9 19 20 29 11 10 20 23 20 30 0 7 12 25 26 41 31 36 82 143 95 204 6 24 21
71 34 105 14 33 23 71 20 83 -2 12 0 45 5 74 5 29 16 128 25 219 13 145 13
173 1 220 -11 44 -15 50 -22 34 -7 -17 -9 -15 -17 15 -13 52 -13 85 -1 83 12
-2 12 66 -1 87 -6 9 -9 9 -16 -1 -13 -22 -17 -7 -10 36 6 36 9 40 34 38 25 -2
28 1 26 25 -4 51 0 59 24 55 14 -3 29 2 36 11 9 11 10 16 2 16 -20 0 -11 51
13 74 18 16 27 38 32 76 4 30 15 68 26 85 10 16 18 35 18 42 0 7 14 32 30 56
17 25 30 49 30 54 0 4 9 14 19 20 11 7 29 37 40 68 12 31 44 91 71 132 28 42
50 87 50 101 0 14 9 35 19 46 11 12 26 33 34 48 7 14 45 55 83 89 38 34 73 70
78 81 5 10 14 18 19 18 5 0 59 50 118 110 87 89 199 191 284 258 6 5 24 25 42
44 17 20 44 43 60 51 15 9 37 24 48 34 11 10 43 27 70 37 28 11 66 29 85 41
106 65 324 108 437 85 26 -5 93 -14 148 -20 55 -6 109 -16 120 -23 11 -7 40
-19 65 -27 25 -8 59 -24 75 -35 71 -47 299 -132 565 -211 52 -15 104 -34 115
-41 11 -7 28 -13 37 -13 10 0 27 -4 38 -10 11 -5 29 -14 40 -20 11 -5 28 -14
38 -19 9 -6 40 -20 67 -33 28 -13 53 -27 57 -33 4 -5 9 -7 12 -5 4 5 9 771 6
1015 -3 199 -20 109 -22 -110 0 -101 -4 -169 -8 -155 -5 14 -8 58 -9 98 -1 41
-5 72 -11 72 -5 0 -10 -7 -10 -15 0 -11 -11 -15 -40 -15 -38 0 -40 2 -40 30 0
36 -3 37 -43 4 -29 -22 -32 -30 -29 -70 3 -37 7 -44 26 -44 20 -1 20 -2 -6
-25 -29 -25 -36 -51 -17 -57 8 -3 9 -28 3 -83 -4 -44 -10 -72 -12 -61 -2 10
-16 29 -30 42 -27 23 -27 23 -4 24 19 0 22 5 22 40 0 39 -1 40 -35 40 -32 0
-35 2 -35 30 0 28 -2 30 -40 30 l-40 0 0 50 c0 49 1 50 31 50 17 0 28 4 24 10
-3 6 -35 10 -71 10 l-64 0 0 -30 c0 -27 -3 -30 -31 -30 -38 0 -120 20 -136 33
-15 11 -17 57 -3 57 6 0 10 7 10 15 0 21 -16 19 -32 -3 -12 -18 -17 -18 -74
-4 -51 12 -61 18 -57 33 9 31 -43 66 -100 68 -53 1 -69 7 -65 24 3 17 -24 57
-39 57 -7 0 -13 -10 -13 -22 0 -13 -5 -30 -10 -38 -7 -11 -10 -8 -10 16 0 34
-13 44 -56 44 -17 0 -24 6 -24 19 0 15 -11 19 -61 25 -88 9 -99 8 -99 -8 0
-11 -7 -12 -27 -7 -21 6 -27 13 -26 30 5 36 -13 60 -39 54 -13 -3 -29 -10 -35
-16 -9 -6 -13 -5 -13 4 0 11 -2 11 -10 -1 -6 -10 -10 -11 -10 -2 0 24 -19 11
-25 -18 -7 -32 -25 -42 -25 -14 0 12 -3 14 -13 6 -8 -7 -18 -7 -27 -2 -10 7
-11 10 -2 10 6 0 12 6 12 14 0 7 10 16 23 20 18 5 20 8 7 16 -21 14 -30 12
-30 -5 0 -8 -6 -15 -13 -15 -7 0 -20 -8 -29 -19 -15 -18 -13 -20 29 -42 24
-13 57 -30 71 -37 49 -24 57 -29 55 -36 -4 -8 35 -47 45 -44 4 1 23 -6 42 -17
19 -11 37 -20 40 -20 30 -7 78 -45 56 -45 -15 0 -66 24 -66 31 0 5 -8 9 -17
10 -10 0 -31 9 -48 20 -16 10 -42 24 -57 30 -16 6 -28 15 -28 20 0 4 -19 17
-42 28 -24 11 -92 49 -153 86 -60 36 -141 83 -180 106 -90 51 -109 63 -115 69
-3 3 -16 10 -30 17 -14 6 -112 63 -218 126 -197 118 -250 144 -279 133 -12 -5
9 -22 73 -61 49 -29 114 -69 144 -88 60 -37 257 -153 495 -292 83 -48 166 -98
185 -110 19 -12 60 -37 90 -54 149 -87 230 -140 230 -150 0 -19 -30 -19 -40
-2 -10 19 -45 42 -165 106 -115 62 -159 87 -171 96 -6 5 -40 24 -75 43 -35 18
-122 68 -193 110 -70 42 -130 76 -132 76 -7 0 -180 104 -212 127 -18 14 -67
43 -109 64 -41 22 -84 49 -96 59 -11 11 -25 20 -30 20 -5 0 -28 13 -52 29 -24
16 -70 41 -104 56 -34 16 -63 36 -66 47 -4 10 -12 18 -18 17 -7 -1 -34 8 -62
21 -41 19 -70 24 -160 27 -100 2 -113 1 -145 -20z m1787 -933 c5 -16 -28 -27
-41 -14 -16 16 -30 12 -16 -5 12 -14 90 -55 104 -55 4 0 6 7 6 15 0 8 -7 15
-15 15 -17 0 -20 16 -4 25 6 4 16 -1 24 -11 10 -14 24 -17 58 -15 25 1 48 -2
51 -8 7 -10 -8 -16 -66 -27 -32 -5 -38 -10 -38 -30 0 -16 -8 -28 -24 -35 -35
-16 -60 -74 -50 -114 4 -17 19 -29 52 -41 55 -20 98 -54 69 -54 -9 0 -17 3
-17 8 0 4 -19 13 -42 20 -64 20 -88 47 -88 98 0 24 5 46 10 49 6 3 10 24 10
45 0 38 -23 67 -78 100 -15 9 -15 12 8 30 26 21 81 24 87 4z m-3143 -715 c22
0 41 -17 50 -47 9 -26 -19 -70 -60 -97 -26 -17 -27 -17 -63 19 -20 20 -42 36
-49 36 -20 0 -14 28 8 35 11 3 20 11 20 17 0 23 34 49 55 43 11 -4 28 -7 39
-6z m1408 -83 c65 -49 84 -65 149 -126 59 -55 72 -80 44 -80 -8 0 -15 5 -15
10 0 6 -5 10 -11 10 -6 0 -9 -9 -6 -20 3 -10 -1 -24 -9 -31 -8 -6 -14 -17 -14
-24 0 -8 -16 -23 -35 -35 -19 -12 -35 -26 -35 -32 0 -9 -28 -41 -106 -124 -22
-23 -104 -143 -104 -152 0 -3 -11 -19 -23 -36 -24 -31 -67 -145 -67 -176 0 -9
-11 -27 -25 -40 -14 -13 -25 -34 -25 -47 0 -42 -19 -24 -25 25 -38 293 -119
568 -205 696 -17 24 -30 49 -30 55 0 6 -4 11 -10 11 -5 0 -10 6 -10 13 1 13
60 -47 77 -78 14 -25 53 -14 101 29 77 68 281 186 321 186 11 0 39 -15 63 -34z
m-1508 -81 c32 -24 33 -27 22 -59 -15 -42 -32 -63 -68 -82 -25 -13 -31 -13
-57 1 -17 8 -33 20 -36 25 -10 16 65 80 92 80 30 0 29 6 -4 35 -28 24 -28 24
-5 25 13 0 38 -11 56 -25z m-2381 -390 c14 3 33 -4 51 -19 l29 -24 -29 -38
c-16 -21 -39 -49 -52 -63 l-23 -25 -37 19 c-31 17 -37 26 -40 57 -3 31 3 44
35 79 28 31 39 38 41 25 2 -11 10 -14 25 -11z m1065 -22 c20 -17 40 -87 92
-320 7 -29 15 -53 18 -53 3 0 14 8 24 17 17 15 20 15 35 0 15 -15 15 -30 6
-151 -10 -124 -10 -141 8 -198 10 -35 19 -70 19 -79 0 -26 36 -51 82 -56 24
-3 120 7 213 21 94 15 199 31 235 36 36 6 121 19 190 30 69 11 215 33 325 49
376 56 540 81 594 91 73 13 87 13 104 -5 20 -19 10 -54 -17 -66 -11 -4 -52
-13 -91 -18 -74 -10 -755 -111 -915 -136 -52 -8 -212 -33 -355 -55 -143 -21
-270 -42 -282 -46 -18 -5 -25 -1 -35 22 -7 16 -13 31 -15 33 -2 2 -24 -17 -50
-43 -42 -43 -46 -52 -49 -104 -2 -31 -8 -122 -13 -202 -23 -343 -42 -656 -51
-810 -22 -415 -34 -566 -43 -575 -6 -6 -7 31 -3 105 3 63 8 169 11 235 8 185
24 502 40 805 20 369 19 405 -5 454 -10 23 -22 66 -26 96 -5 49 -3 59 20 93
l26 38 -19 72 c-10 40 -28 113 -40 162 -11 50 -37 158 -56 240 -20 83 -42 175
-49 205 -15 62 -12 80 15 109 24 26 31 26 57 4z m-938 -69 c0 -11 5 -14 16
-10 16 6 74 -22 74 -36 0 -4 -13 -29 -30 -56 -34 -55 -73 -83 -92 -64 -7 7
-20 12 -30 12 -41 0 -47 107 -6 118 11 2 24 15 29 28 10 27 39 33 39 8z m3484
-679 c-5 -136 -25 -272 -55 -395 -19 -77 -97 -316 -120 -367 -106 -240 -234
-450 -337 -553 -78 -77 -95 -65 -24 17 27 32 79 105 114 163 173 278 293 590
354 919 13 75 29 152 34 171 5 19 13 94 16 165 7 117 8 125 16 80 5 -27 6
-117 2 -200z m-1336 -780 c86 -57 97 -66 105 -87 3 -10 13 -18 21 -18 16 0
-49 -88 -129 -177 l-40 -45 -130 92 c-141 100 -167 123 -158 145 7 19 23 20
23 2 0 -8 52 -50 114 -95 63 -45 118 -87 121 -92 3 -6 15 -10 26 -10 25 0 20
22 -7 30 -30 8 -203 133 -207 150 -3 15 17 41 90 118 53 55 72 53 171 -13z
m160 -217 c10 -10 15 -10 22 2 7 12 14 11 44 -5 20 -11 36 -22 36 -26 0 -3
-11 -16 -25 -29 -14 -13 -25 -28 -25 -34 0 -6 -12 -22 -26 -35 -24 -23 -25
-23 -57 -6 -28 15 -33 22 -29 46 3 19 10 29 21 29 23 0 31 9 24 26 -3 9 -13
12 -25 8 -17 -5 -18 -3 -9 15 13 24 31 27 49 9z m715 -408 c17 0 27 -5 27 -15
0 -23 25 -29 62 -16 22 8 34 8 36 1 2 -5 10 -10 18 -10 8 0 14 -5 14 -10 0 -6
14 -9 31 -8 36 3 49 -14 20 -28 -10 -5 -54 -42 -97 -81 -42 -40 -86 -73 -96
-73 -21 0 -70 -73 -62 -94 10 -27 -13 -25 -46 4 l-32 29 12 50 c7 28 17 54 24
59 11 7 36 46 36 57 0 16 -37 -15 -60 -52 l-28 -44 -21 22 c-24 26 -25 34 -9
80 13 38 13 38 64 97 28 33 43 42 58 38 12 -3 33 -6 49 -6z m-3664 -510 c182
-180 360 -306 541 -382 128 -55 266 -102 340 -118 30 -7 84 -18 120 -26 165
-36 508 -43 680 -15 36 6 108 18 160 26 112 19 286 68 385 110 17 7 48 18 70
25 22 7 62 23 89 36 28 13 55 24 61 24 7 0 25 6 41 14 16 8 40 17 54 21 23 6
23 5 -5 -14 -16 -12 -38 -21 -47 -21 -9 0 -20 -5 -23 -10 -7 -11 -134 -72
-175 -85 -14 -4 -38 -13 -55 -20 -28 -12 -232 -68 -285 -79 -14 -2 -63 -16
-110 -29 -96 -28 -213 -55 -292 -67 -38 -6 -22 -7 60 -4 65 3 112 1 112 -5 0
-5 -21 -23 -47 -40 -27 -17 -59 -43 -73 -57 -13 -15 -36 -34 -50 -42 -100 -64
-279 -260 -395 -434 -19 -29 -32 -38 -53 -38 -27 0 -122 50 -199 105 -38 27
-42 34 -43 71 0 58 27 129 109 285 39 75 71 148 71 162 0 28 -15 34 -180 77
-257 66 -481 176 -686 336 -141 110 -285 264 -347 369 -11 17 0 8 24 -20 24
-27 90 -97 148 -155z m-1384 -2409 c35 -42 85 -95 111 -119 27 -24 83 -76 124
-115 68 -65 114 -107 305 -277 63 -56 168 -144 375 -313 9 -7 42 -33 75 -57
33 -25 65 -49 71 -55 30 -26 51 -42 64 -48 8 -4 46 -32 85 -62 50 -40 78 -55
101 -55 37 0 94 -59 126 -129 11 -24 29 -46 39 -48 13 -4 19 -14 19 -37 0 -17
9 -50 20 -73 21 -48 10 -58 -17 -15 -10 15 -33 42 -50 61 -18 19 -33 41 -33
49 0 9 -3 12 -7 9 -8 -9 -53 32 -53 47 0 20 -122 138 -213 206 -11 8 -38 31
-61 51 -22 19 -73 61 -112 92 -39 30 -78 62 -85 70 -8 7 -37 31 -65 53 -64 49
-216 177 -269 225 -22 20 -55 50 -74 65 -18 16 -43 38 -55 49 -12 11 -50 45
-86 75 -36 30 -67 57 -70 60 -3 3 -43 39 -90 80 -47 40 -88 78 -91 83 -4 5
-16 7 -27 5 -23 -3 -23 -3 16 -67 22 -37 -1 -23 -63 38 -66 63 -97 125 -121
241 -21 100 -17 112 17 46 17 -32 59 -93 94 -135z m305 -236 c19 -18 65 -60
101 -94 36 -34 79 -72 94 -84 16 -12 41 -33 56 -47 72 -66 154 -136 179 -155
31 -22 79 -61 215 -175 107 -89 119 -100 110 -100 -9 0 -93 60 -150 107 -22
18 -89 72 -150 120 -60 48 -112 89 -115 92 -3 4 -39 35 -80 71 -110 95 -277
253 -310 295 -13 17 -13 18 0 10 8 -4 31 -23 50 -40z"/>
<path d="M4832 5490 c-35 -39 -42 -52 -34 -67 25 -45 110 -98 142 -88 10 3 28
21 40 40 11 18 26 35 33 38 22 7 -6 60 -48 89 -66 45 -84 44 -133 -12z"/>
<path d="M3307 8845 c-31 -30 -57 -59 -57 -64 0 -12 -45 -41 -64 -41 -8 0 -16
5 -18 12 -3 9 -6 9 -12 0 -4 -7 -2 -12 3 -12 6 0 11 -4 11 -10 0 -5 -7 -10
-16 -10 -8 0 -29 -13 -45 -29 -15 -16 -48 -38 -71 -50 -24 -11 -61 -37 -82
-57 -25 -23 -45 -34 -57 -31 -14 4 -19 0 -19 -14 0 -13 -7 -19 -22 -19 -13 0
-36 -11 -52 -25 -16 -13 -37 -27 -47 -30 -11 -4 -19 -11 -19 -16 0 -21 -30
-39 -67 -40 -29 -1 -33 -3 -16 -7 16 -5 20 -11 14 -21 -5 -8 -16 -11 -29 -7
-14 5 -21 1 -24 -12 -3 -11 -19 -25 -37 -33 -17 -8 -31 -20 -31 -26 0 -7 -9
-13 -19 -13 -19 0 -40 -15 -103 -72 -17 -15 -40 -30 -52 -34 -11 -4 -28 -15
-36 -24 -20 -23 -54 -40 -79 -40 -12 0 -21 -6 -21 -12 0 -7 -14 -28 -31 -47
-25 -26 -33 -31 -40 -20 -5 8 -9 9 -9 3 0 -6 -14 -17 -30 -24 -17 -7 -45 -29
-63 -50 -18 -20 -45 -40 -60 -44 -16 -4 -47 -25 -70 -47 -23 -22 -58 -44 -79
-49 -25 -7 -43 -21 -55 -41 -12 -20 -39 -41 -80 -60 -35 -16 -63 -33 -63 -37
-1 -19 -69 -80 -103 -91 -20 -7 -37 -18 -37 -24 0 -7 -10 -19 -22 -26 -45 -28
-108 -85 -108 -98 0 -7 -8 -13 -19 -13 -10 0 -30 -9 -44 -20 -14 -11 -28 -20
-32 -20 -4 0 -20 -11 -37 -25 -16 -14 -35 -25 -41 -25 -7 0 -33 -22 -58 -48
-26 -26 -72 -60 -103 -77 -31 -16 -56 -35 -56 -42 0 -6 -22 -28 -50 -48 -28
-20 -50 -41 -50 -47 0 -15 -40 -48 -57 -48 -8 0 -32 -18 -54 -40 -45 -45 -143
-120 -158 -120 -5 0 -11 3 -14 8 -2 4 -3 2 -1 -4 4 -20 -80 -84 -111 -84 -8 0
-15 -9 -15 -20 0 -13 -10 -24 -25 -30 -13 -5 -39 -24 -57 -41 -18 -17 -45 -36
-60 -41 -16 -6 -28 -15 -28 -20 0 -14 -80 -92 -103 -101 -9 -3 -17 -11 -17
-17 0 -5 -16 -16 -35 -24 -20 -9 -35 -22 -35 -32 0 -9 -6 -14 -13 -11 -18 7
-30 -3 -45 -36 -7 -16 -20 -31 -30 -34 -25 -6 -57 -83 -34 -83 4 0 20 12 35
26 15 14 65 53 110 87 45 33 100 77 123 96 22 20 55 47 73 61 18 14 56 46 84
72 29 27 55 48 59 48 4 0 21 14 38 30 17 17 35 30 39 30 5 0 23 14 41 30 18
17 34 30 36 30 10 0 71 47 116 89 27 25 64 56 83 69 19 14 35 28 35 32 0 4 8
10 18 14 9 3 33 18 53 33 20 16 63 48 95 73 33 25 79 58 103 75 24 16 45 35
48 42 3 7 10 13 17 13 6 0 25 11 41 25 37 31 49 40 155 119 47 34 91 70 99 79
7 10 19 17 25 17 6 0 25 13 41 28 17 15 46 39 65 52 19 13 41 30 48 37 7 7 16
13 20 13 4 0 23 15 42 33 20 17 43 37 51 42 37 24 78 52 134 94 80 60 83 63
106 84 10 9 23 17 29 17 6 0 10 5 10 10 0 6 7 10 15 10 8 0 22 11 30 24 9 14
28 29 43 34 15 6 44 26 65 45 21 20 59 48 85 63 26 15 51 33 55 41 5 7 12 11
16 8 5 -2 15 2 22 11 7 8 29 24 48 35 52 28 74 42 91 59 8 8 35 28 60 45 25
16 63 43 85 60 22 17 53 37 69 45 16 8 42 27 59 43 16 15 34 27 40 27 13 0 92
57 129 94 16 16 31 26 35 23 9 -10 43 12 43 27 0 7 13 16 29 19 26 6 181 140
181 158 0 4 15 23 33 42 80 85 76 100 -6 22z"/>
<path d="M9175 7260 l-40 -20 51 5 c76 8 334 -14 368 -31 40 -19 46 -18 46 10
0 37 -45 48 -225 53 -146 3 -163 2 -200 -17z"/>
<path d="M9080 7082 c-30 -9 -99 -44 -153 -77 -54 -33 -112 -68 -130 -77 -18
-9 -39 -23 -46 -32 -8 -9 -19 -16 -26 -16 -8 0 -15 -4 -17 -8 -1 -5 -25 -23
-53 -42 -149 -102 -288 -238 -458 -450 -59 -74 -144 -178 -188 -231 -44 -52
-87 -106 -96 -120 -20 -29 -178 -221 -274 -334 -38 -44 -90 -110 -116 -146
-83 -115 -160 -212 -202 -257 -23 -23 -60 -68 -83 -100 -23 -31 -65 -84 -93
-117 -75 -88 -145 -180 -145 -190 0 -4 -7 -15 -16 -24 -46 -47 -114 -127 -114
-134 0 -5 -11 -21 -24 -35 -14 -15 -61 -72 -107 -127 -45 -55 -107 -126 -137
-157 -30 -31 -66 -74 -80 -95 -13 -21 -41 -56 -62 -78 -20 -22 -67 -83 -105
-135 -37 -52 -78 -103 -91 -113 -13 -10 -24 -24 -24 -29 0 -11 -64 -100 -92
-129 -7 -8 -58 -72 -113 -144 -55 -71 -108 -139 -118 -150 -11 -11 -43 -52
-72 -90 -29 -39 -60 -76 -69 -84 -9 -7 -42 -48 -73 -90 -31 -42 -71 -89 -89
-106 -18 -16 -49 -54 -69 -84 -20 -30 -62 -83 -93 -119 -31 -35 -61 -72 -66
-81 -5 -9 -12 -18 -15 -21 -11 -9 -116 -144 -141 -180 -22 -33 -38 -53 -116
-148 -17 -20 -50 -66 -74 -102 -23 -36 -53 -77 -67 -91 -13 -14 -36 -44 -51
-66 -68 -103 -109 -160 -131 -185 -26 -30 -99 -138 -148 -220 -17 -29 -61 -93
-97 -141 -36 -48 -66 -94 -66 -102 0 -8 -8 -19 -17 -24 -10 -5 -27 -27 -38
-48 -11 -21 -29 -51 -40 -68 -12 -16 -28 -43 -35 -60 -8 -16 -17 -32 -21 -35
-3 -3 -13 -23 -23 -45 -10 -22 -28 -53 -40 -70 -22 -30 -86 -157 -86 -171 0
-4 -7 -16 -17 -26 -9 -10 -26 -42 -38 -70 -13 -29 -39 -91 -59 -138 -20 -46
-36 -90 -36 -98 0 -7 -12 -33 -26 -58 -14 -24 -24 -53 -21 -64 3 -10 -2 -28
-10 -40 -8 -12 -17 -36 -19 -53 -2 -18 -6 -48 -10 -67 -3 -19 -7 -62 -9 -95
-2 -33 -6 -68 -10 -77 -13 -33 2 -49 41 -46 47 4 69 33 39 51 -11 7 -26 12
-34 12 -8 0 -16 6 -19 13 -2 6 2 12 8 12 7 0 23 10 35 22 l23 22 -25 22 c-17
14 -21 24 -14 29 6 3 20 -4 30 -17 17 -21 21 -21 45 -9 14 8 26 20 26 28 0 7
11 13 25 13 18 0 23 4 19 15 -4 10 0 15 11 15 9 0 14 -4 11 -9 -8 -12 50 -35
69 -27 22 8 19 44 -5 58 -26 16 -26 45 0 53 11 3 20 15 20 25 0 15 9 19 42 22
51 4 65 31 25 49 -19 9 -31 8 -55 -5 -21 -11 -33 -13 -38 -5 -9 14 6 27 36 31
17 2 30 14 42 38 l16 35 11 -25 c7 -19 10 -21 10 -7 1 15 7 17 28 13 16 -3 46
-1 68 3 32 6 36 9 20 15 -35 13 -48 21 -47 31 0 6 -4 15 -8 21 -10 11 -2 54
10 54 5 0 16 8 26 17 13 13 19 14 22 5 4 -13 42 -17 42 -4 0 4 12 15 27 24 24
14 31 14 70 1 23 -8 40 -19 37 -24 -3 -5 2 -9 10 -9 9 0 16 -4 16 -10 0 -11
43 -14 53 -4 9 10 -81 83 -111 90 -44 9 -82 26 -82 35 0 5 23 9 50 9 42 0 50
3 50 19 0 19 21 33 50 35 8 1 16 11 18 22 2 17 -6 25 -35 37 l-38 16 46 0 c48
1 79 -19 79 -52 0 -12 9 -17 29 -17 16 0 31 -5 33 -12 5 -14 58 -3 58 12 0 6
-13 13 -29 16 -33 7 -49 33 -29 45 10 6 10 11 1 20 -8 8 -14 6 -22 -10 -16
-29 -36 -26 -39 4 -1 19 3 25 18 25 10 0 22 5 25 11 4 6 19 7 35 4 16 -4 38
-1 50 5 18 10 19 13 6 26 -9 8 -30 20 -48 26 -18 6 -39 15 -45 21 -21 16 -15
30 10 23 81 -24 114 -29 121 -17 4 5 -11 20 -33 33 -37 21 -67 55 -58 64 2 2
17 -2 33 -11 16 -8 39 -15 50 -15 15 0 24 -8 28 -25 5 -19 12 -24 31 -23 33 3
32 21 -2 47 l-28 21 24 20 c13 11 34 20 48 20 19 0 24 4 19 16 -3 9 -6 19 -6
24 0 5 -12 10 -27 12 -25 3 -25 4 -10 18 37 34 47 40 64 40 17 -1 17 -1 0 -14
-9 -7 -17 -20 -17 -27 0 -17 58 -42 74 -32 6 4 24 6 41 6 16 -1 23 1 15 3 -16
5 -41 50 -32 59 3 3 25 5 49 5 32 0 43 -4 43 -16 0 -12 7 -14 30 -9 26 6 30 4
30 -14 0 -12 -5 -21 -12 -21 -8 0 -9 -3 -2 -10 8 -8 20 -7 40 0 64 25 150 9
137 -26 -4 -10 4 -14 31 -14 22 0 39 -6 42 -14 3 -7 23 -21 44 -31 22 -10 37
-22 34 -27 -3 -5 -12 -7 -20 -4 -18 7 -18 -2 1 -21 21 -20 48 -9 40 17 -3 11
-3 20 1 20 3 0 49 -26 102 -57 85 -51 92 -57 72 -65 -17 -6 -20 -12 -13 -19 8
-8 17 -8 32 0 22 12 26 10 106 -38 16 -10 30 -22 31 -27 2 -22 17 -44 35 -49
25 -8 24 -14 -6 -49 -26 -31 -34 -62 -12 -50 21 12 57 47 57 56 0 5 46 55 103
111 56 56 197 199 312 319 116 119 249 256 297 305 49 48 94 95 102 103 145
151 1076 1077 1141 1135 50 44 140 127 200 186 61 58 144 137 185 175 93 86
187 173 265 246 33 31 79 73 103 94 24 21 65 59 91 84 104 98 160 150 261 235
57 50 145 129 195 177 95 90 266 244 301 268 29 21 44 53 44 93 0 49 -20 62
-72 49 -53 -13 -97 -5 -100 17 -7 76 -4 116 8 128 9 10 12 30 8 72 -4 41 0 73
14 112 11 31 20 87 21 134 2 44 8 89 14 100 6 11 12 41 13 66 1 25 6 55 13 66
6 12 11 34 11 48 0 14 12 51 26 81 22 46 27 75 34 201 14 221 13 1329 -1 1368
-16 44 -80 72 -186 81 -164 14 -269 13 -323 -4z m-2032 -3442 c2 -20 -20 -48
-104 -135 -59 -60 -117 -126 -130 -145 -13 -19 -35 -51 -48 -70 -13 -19 -66
-81 -117 -137 -52 -55 -112 -122 -134 -149 -21 -26 -41 -42 -43 -36 -5 17 46
111 87 155 20 23 66 78 101 122 35 44 96 116 135 160 39 44 77 89 85 101 81
116 125 165 144 162 14 -2 22 -11 24 -28z m-598 -1414 c0 -20 -178 -222 -308
-348 -120 -118 -154 -138 -167 -99 -3 11 -19 21 -36 25 -30 6 -31 8 -24 43 8
47 14 53 26 30 13 -23 40 -22 36 2 -2 10 -9 26 -16 35 -11 13 -11 17 3 22 9 3
16 14 16 23 0 9 8 29 19 44 10 15 16 38 14 50 -2 12 3 31 11 42 12 16 17 18
27 8 7 -7 23 -13 36 -13 28 0 73 20 73 33 0 5 10 17 22 26 20 17 22 17 41 -2
19 -19 19 -19 47 8 16 15 43 30 62 34 23 5 33 13 32 24 -1 12 3 16 15 12 9 -3
26 1 36 9 21 15 35 12 35 -8z"/>
<path d="M9574 5093 c-15 -85 -34 -171 -49 -228 -9 -33 -17 -67 -18 -75 -2
-14 54 -49 81 -50 16 0 16 62 0 78 -9 9 -9 15 0 24 15 15 17 288 2 288 -5 0
-12 -17 -16 -37z"/>
</g>
</svg>
