<?xml version="1.0" encoding="iso-8859-1"?>
<!-- Generator: Adobe Illustrator 19.0.0, SVG Export Plug-In . SVG Version: 6.00 Build 0)  -->
<svg version="1.1" id="Layer_1" xmlns="http://www.w3.org/2000/svg" xmlns:xlink="http://www.w3.org/1999/xlink" x="0px" y="0px"
	 viewBox="0 0 512 512" style="enable-background:new 0 0 512 512;" xml:space="preserve">
<g>
	<g>
		<path d="M220.702,468.706l-42.515,13.999v4.896c0,13.476,10.924,24.4,24.4,24.4c13.476,0,24.4-10.924,24.4-24.4v-21.911
			C225.045,466.95,222.936,467.97,220.702,468.706z"/>
	</g>
</g>
<g>
	<g>
		<circle cx="232.25" cy="42.141" r="42.141"/>
	</g>
</g>
<g>
	<g>
		<path d="M108.358,346.247c-0.006-0.024-0.009-0.048-0.014-0.07c-2.371-10.301,1.341-20.565,8.979-26.944l-3.688-11.198
			l-3.821,11.606l-3.979-1.31c-6.335-2.086-13.215,1.009-15.858,7.132l-48.462,112.3c-2.997,6.947,0.614,14.976,7.8,17.342
			l49.607,16.334c7.185,2.367,14.861-1.947,16.577-9.316l9.921-42.605L108.358,346.247z"/>
	</g>
</g>
<g>
	<g>
		<path d="M468.305,399.697l-81.097-91.559c-4.422-4.993-11.925-5.785-17.292-1.825l-3.372,2.487l-7.255-9.834l-0.007,11.789
			c9.248,3.675,15.978,12.267,16.941,22.794c0.002,0.025,0.007,0.047,0.009,0.071l6.666,74.935l22.726,37.38
			c1.879,3.09,4.971,5.249,8.519,5.948c3.548,0.699,7.228-0.126,10.138-2.273l42.028-31.003c2.91-2.147,4.784-5.419,5.164-9.015
			C471.853,405.995,470.702,402.405,468.305,399.697z"/>
	</g>
</g>
<g>
	<g>
		<path d="M372.809,456.718L361.97,334.889c-0.592-6.646-6.157-11.738-12.825-11.742l-4.189-0.002l0.02-33.616
			c0.18-0.058,0.36-0.101,0.54-0.164c9.223-3.234,16.862-13.436,11.943-27.392c-5.45-15.549-37.516-107.028-42.966-122.889
			c-9.434-27.452-25.252-41.37-47.014-41.37h-70.824c-21.762,0-37.58,13.919-47.014,41.37
			c-5.368,15.623-37.861,108.33-43.156,123.43c-4.418,12.591,2.354,23.422,12.134,26.851c1.412,0.495,2.842,0.807,4.269,0.982
			l11.914,36.182l-3.978,1.31c-6.335,2.086-10.031,8.662-8.519,15.159l27.736,119.126c1.722,7.397,9.422,11.672,16.577,9.316
			l49.607-16.334c7.187-2.367,10.797-10.396,7.8-17.342l-48.462-112.3c-2.086-4.835-6.814-7.782-11.829-7.782
			c-2.529,0-3.835,0.584-8.008,1.959l-12.864-39.141c0.66-1.121,1.224-2.321,1.671-3.596c9.299-26.535,25.015-71.369,36.114-103.173
			l-21.093,111.759l5.904,17.928c10.168,0.642,19.174,6.925,23.251,16.373l38.278,88.701v-68.383c3.508,0,7.028,0,10.536,0v147.492
			c0,13.476,10.924,24.4,24.4,24.4c13.476,0,24.4-10.924,24.4-24.4v-13.03c-4.229-5.419-6.285-12.294-5.664-19.183l5.664-62.827
			v-52.453c1.628,0,3.203,0,4.729,0l0.59-6.537c0.951-10.553,7.702-19.165,16.977-22.842l-24.553-135.345
			c0.929,2.66,35.608,102.202,36.86,104.507c0.641,1.182,1.318,2.155,2.054,3.054l-0.05,40.186l-4.189-0.002
			c-0.003,0-0.006,0-0.008,0c-6.666,0-12.233,5.086-12.831,11.727l-10.981,121.817c-0.324,3.602,0.879,7.174,3.318,9.845
			c2.439,2.671,5.888,4.192,9.505,4.195l52.226,0.031c0.003,0,0.006,0,0.008,0c3.614,0,7.062-1.518,9.502-4.183
			C371.921,463.892,373.129,460.321,372.809,456.718z"/>
	</g>
</g>
<g>
</g>
<g>
</g>
<g>
</g>
<g>
</g>
<g>
</g>
<g>
</g>
<g>
</g>
<g>
</g>
<g>
</g>
<g>
</g>
<g>
</g>
<g>
</g>
<g>
</g>
<g>
</g>
<g>
</g>
</svg>
